<?xml version="1.0" encoding="UTF-8" standalone="no"?><svg xmlns="http://www.w3.org/2000/svg" xmlns:xlink="http://www.w3.org/1999/xlink" contentStyleType="text/css" height="490px" preserveAspectRatio="none" style="width:283px;height:490px;background:#FFFFFF;" version="1.1" viewBox="0 0 283 490" width="283px" zoomAndPan="magnify"><defs/><g><ellipse cx="141.5" cy="20" fill="#222222" rx="10" ry="10" style="stroke:#222222;stroke-width:1.0;"/><rect fill="none" height="99.7969" style="stroke:#000000;stroke-width:1.5;" width="160" x="61.5" y="40"/><path d="M134.5,40 L134.5,50.6094 L124.5,60.6094 L61.5,60.6094 " fill="none" style="stroke:#000000;stroke-width:1.5;"/><text fill="#000000" font-family="sans-serif" font-size="14" lengthAdjust="spacing" textLength="63" x="64.5" y="55.5332">Get Name</text><rect fill="#ADD8E6" height="50.1875" rx="12.5" ry="12.5" style="stroke:#181818;stroke-width:0.5;" width="140" x="71.5" y="77.6094"/><text fill="#000000" font-family="sans-serif" font-size="12" lengthAdjust="spacing" textLength="65" x="81.5" y="100.0664">ask user for</text><text fill="#000000" font-family="sans-serif" font-size="12" font-weight="bold" lengthAdjust="spacing" textLength="28" x="149.5" y="100.0664">input</text><text fill="#000000" font-family="sans-serif" font-size="12" lengthAdjust="spacing" textLength="21" x="180.5" y="100.0664">and</text><text fill="#000000" font-family="sans-serif" font-size="12" lengthAdjust="spacing" textLength="55" x="81.5" y="115.1602">store their</text><text fill="#000000" font-family="sans-serif" font-size="12" font-weight="bold" lengthAdjust="spacing" textLength="62" x="139.5" y="115.1602">first_name</text><rect fill="none" height="84.7031" style="stroke:#000000;stroke-width:1.5;" width="261" x="11" y="149.7969"/><path d="M78,149.7969 L78,160.4063 L68,170.4063 L11,170.4063 " fill="none" style="stroke:#000000;stroke-width:1.5;"/><text fill="#000000" font-family="sans-serif" font-size="14" lengthAdjust="spacing" textLength="57" x="14" y="165.3301">Get Rent</text><rect fill="#E0FFFF" height="35.0938" rx="12.5" ry="12.5" style="stroke:#181818;stroke-width:0.5;" width="241" x="21" y="187.4063"/><text fill="#000000" font-family="sans-serif" font-size="12" lengthAdjust="spacing" textLength="221" x="31" y="209.8633">Ask user for rent 4 times, storing the rent</text><rect fill="none" height="139.7969" style="stroke:#000000;stroke-width:1.5;" width="226" x="28.5" y="244.5"/><path d="M91.5,244.5 L91.5,255.1094 L81.5,265.1094 L28.5,265.1094 " fill="none" style="stroke:#000000;stroke-width:1.5;"/><text fill="#000000" font-family="sans-serif" font-size="14" lengthAdjust="spacing" textLength="53" x="31.5" y="260.0332">Do Math</text><rect fill="#90EE90" height="35.0938" rx="12.5" ry="12.5" style="stroke:#181818;stroke-width:0.5;" width="206" x="38.5" y="282.1094"/><text fill="#000000" font-family="sans-serif" font-size="12" lengthAdjust="spacing" textLength="183" x="51.5" y="304.5664">determine max rent from 4 values</text><rect fill="#F08080" height="35.0938" rx="12.5" ry="12.5" style="stroke:#181818;stroke-width:0.5;" width="128" x="77.5" y="337.2031"/><text fill="#000000" font-family="sans-serif" font-size="12" lengthAdjust="spacing" textLength="105" x="90.5" y="359.6602">add 3% for inflation</text><rect fill="none" height="84.7031" style="stroke:#000000;stroke-width:1.5;" width="182" x="50.5" y="394.2969"/><path d="M182.5,394.2969 L182.5,404.9063 L172.5,414.9063 L50.5,414.9063 " fill="none" style="stroke:#000000;stroke-width:1.5;"/><text fill="#000000" font-family="sans-serif" font-size="14" lengthAdjust="spacing" textLength="122" x="53.5" y="409.8301">Print/Format output</text><rect fill="#FFA500" height="35.0938" rx="12.5" ry="12.5" style="stroke:#181818;stroke-width:0.5;" width="162" x="60.5" y="431.9063"/><text fill="#000000" font-family="sans-serif" font-size="12" lengthAdjust="spacing" textLength="142" x="70.5" y="454.3633">print your formatted output</text><line style="stroke:#181818;stroke-width:1.0;" x1="141.5" x2="141.5" y1="30" y2="77.6094"/><polygon fill="#181818" points="137.5,67.6094,141.5,77.6094,145.5,67.6094,141.5,71.6094" style="stroke:#181818;stroke-width:1.0;"/><line style="stroke:#181818;stroke-width:1.0;" x1="141.5" x2="141.5" y1="127.7969" y2="187.4063"/><polygon fill="#181818" points="137.5,177.4063,141.5,187.4063,145.5,177.4063,141.5,181.4063" style="stroke:#181818;stroke-width:1.0;"/><line style="stroke:#181818;stroke-width:1.0;" x1="141.5" x2="141.5" y1="317.2031" y2="337.2031"/><polygon fill="#181818" points="137.5,327.2031,141.5,337.2031,145.5,327.2031,141.5,331.2031" style="stroke:#181818;stroke-width:1.0;"/><line style="stroke:#181818;stroke-width:1.0;" x1="141.5" x2="141.5" y1="222.5" y2="282.1094"/><polygon fill="#181818" points="137.5,272.1094,141.5,282.1094,145.5,272.1094,141.5,276.1094" style="stroke:#181818;stroke-width:1.0;"/><line style="stroke:#181818;stroke-width:1.0;" x1="141.5" x2="141.5" y1="372.2969" y2="431.9063"/><polygon fill="#181818" points="137.5,421.9063,141.5,431.9063,145.5,421.9063,141.5,425.9063" style="stroke:#181818;stroke-width:1.0;"/><!--MD5=[b5d2c3b71bbb7b13d0398812b3639429]
@startuml
start
partition "Get Name"{
#lightblue:ask user for **input** and
store their **first_name**;
}
partition "Get Rent"{
#lightcyan:Ask user for rent 4 times, storing the rent;
}
partition "Do Math"{
    #lightgreen: determine max rent from 4 values;
    #lightcoral: add 3% for inflation;
}
partition "Print/Format output"{
#orange:print your formatted output;
}
@enduml

PlantUML version 1.2022.7(Mon Aug 22 12:01:30 CDT 2022)
(GPL source distribution)
Java Runtime: OpenJDK Runtime Environment
JVM: OpenJDK 64-Bit Server VM
Default Encoding: Cp1252
Language: en
Country: US
--></g></svg>