<?xml version="1.0" encoding="UTF-8" standalone="no"?><svg xmlns="http://www.w3.org/2000/svg" xmlns:xlink="http://www.w3.org/1999/xlink" contentStyleType="text/css" height="1476px" preserveAspectRatio="none" style="width:702px;height:1476px;background:#FFFFFF;" version="1.1" viewBox="0 0 702 1476" width="702px" zoomAndPan="magnify"><defs/><g><ellipse cx="523.5" cy="20" fill="#222222" rx="10" ry="10" style="stroke:#222222;stroke-width:1.0;"/><rect fill="none" height="114.8906" style="stroke:#000000;stroke-width:1.5;" width="516" x="139" y="40"/><path d="M212,40 L212,50.6094 L202,60.6094 L139,60.6094 " fill="none" style="stroke:#000000;stroke-width:1.5;"/><text fill="#000000" font-family="sans-serif" font-size="14" lengthAdjust="spacing" textLength="63" x="142" y="55.5332">Get Name</text><path d="M149,88.8984 L149,131.6016 A0,0 0 0 0 149,131.6016 L382,131.6016 A0,0 0 0 0 382,131.6016 L382,114.25 L402,110.25 L382,106.25 L382,98.8984 L372,88.8984 L149,88.8984 A0,0 0 0 0 149,88.8984 " fill="#FEFFDD" style="stroke:#181818;stroke-width:0.5;"/><path d="M372,88.8984 L372,98.8984 L382,98.8984 L372,88.8984 " fill="#FEFFDD" style="stroke:#181818;stroke-width:0.5;"/><text fill="#000000" font-family="sans-serif" font-size="13" lengthAdjust="spacing" textLength="193" x="155" y="107.3936">Note that all input gotten from the</text><text fill="#000000" font-family="sans-serif" font-size="13" font-weight="bold" lengthAdjust="spacing" textLength="40" x="155" y="123.7451">input()</text><text fill="#000000" font-family="sans-serif" font-size="13" lengthAdjust="spacing" textLength="168" x="199" y="123.7451">method is of type 'str' initally.</text><rect fill="#ADD8E6" height="65.2813" rx="12.5" ry="12.5" style="stroke:#181818;stroke-width:0.5;" width="243" x="402" y="77.6094"/><text fill="#000000" font-family="sans-serif" font-size="12" lengthAdjust="spacing" textLength="173" x="412" y="100.0664">display a message asking user</text><text fill="#000000" font-family="sans-serif" font-size="12" lengthAdjust="spacing" textLength="223" x="412" y="115.1602">to 'Please enter a first name:' and assign</text><text fill="#000000" font-family="sans-serif" font-size="12" lengthAdjust="spacing" textLength="182" x="412" y="130.2539">the input to a 'first_name' variable</text><rect fill="#D3D3D3" height="888.2969" style="stroke:#000000;stroke-width:1.5;" width="611.5" x="79.5" y="164.8906"/><path d="M146.5,164.8906 L146.5,175.5 L136.5,185.5 L79.5,185.5 " fill="none" style="stroke:#000000;stroke-width:1.5;"/><text fill="#000000" font-family="sans-serif" font-size="14" lengthAdjust="spacing" textLength="57" x="82.5" y="180.4238">Get Rent</text><rect fill="none" height="200.1719" style="stroke:#000000;stroke-width:1.5;" width="560" x="115" y="195.5"/><path d="M287,195.5 L287,206.1094 L277,216.1094 L115,216.1094 " fill="none" style="stroke:#000000;stroke-width:1.5;"/><text fill="#000000" font-family="sans-serif" font-size="14" lengthAdjust="spacing" textLength="162" x="118" y="211.0332">Get Rent1 and cast to  int</text><rect fill="#E0FFFF" height="65.2813" rx="12.5" ry="12.5" style="stroke:#181818;stroke-width:0.5;" width="278" x="384.5" y="233.1094"/><text fill="#000000" font-family="sans-serif" font-size="12" lengthAdjust="spacing" textLength="173" x="394.5" y="255.5664">display a message asking user</text><text fill="#000000" font-family="sans-serif" font-size="12" lengthAdjust="spacing" textLength="258" x="394.5" y="270.6602">to 'Please enter rent for month one:' and assign</text><text fill="#000000" font-family="sans-serif" font-size="12" lengthAdjust="spacing" textLength="182" x="394.5" y="285.7539">the input to a month_one variable</text><path d="M125,321.5039 L125,380.5586 A0,0 0 0 0 125,380.5586 L362,380.5586 A0,0 0 0 0 362,380.5586 L362,355.0313 L382,351.0313 L362,347.0313 L362,331.5039 L352,321.5039 L125,321.5039 A0,0 0 0 0 125,321.5039 " fill="#FEFFDD" style="stroke:#181818;stroke-width:0.5;"/><path d="M352,321.5039 L352,331.5039 L362,331.5039 L352,321.5039 " fill="#FEFFDD" style="stroke:#181818;stroke-width:0.5;"/><text fill="#000000" font-family="sans-serif" font-size="13" lengthAdjust="spacing" textLength="216" x="131" y="339.999">Hint: last weeks homework we cast a</text><text fill="#000000" font-family="sans-serif" font-size="13" lengthAdjust="spacing" textLength="193" x="131" y="356.3506">variable to an integer; refer to that</text><text fill="#000000" font-family="sans-serif" font-size="13" lengthAdjust="spacing" textLength="121" x="131" y="372.7021">code if you are stuck</text><rect fill="#FFB6C1" height="65.2813" rx="12.5" ry="12.5" style="stroke:#181818;stroke-width:0.5;" width="283" x="382" y="318.3906"/><text fill="#000000" font-family="sans-serif" font-size="12" lengthAdjust="spacing" textLength="183" x="392" y="340.8477">if you didn't do this in the previous</text><text fill="#000000" font-family="sans-serif" font-size="12" lengthAdjust="spacing" textLength="263" x="392" y="355.9414">line of code, cast month_one to an 'int' and store</text><text fill="#000000" font-family="sans-serif" font-size="12" lengthAdjust="spacing" textLength="191" x="392" y="371.0352">it as a variable like 'month_one_int'</text><rect fill="none" height="215.1719" style="stroke:#000000;stroke-width:1.5;" width="587" x="89.5" y="405.6719"/><path d="M261.5,405.6719 L261.5,416.2813 L251.5,426.2813 L89.5,426.2813 " fill="none" style="stroke:#000000;stroke-width:1.5;"/><text fill="#000000" font-family="sans-serif" font-size="14" lengthAdjust="spacing" textLength="162" x="92.5" y="421.2051">Get Rent2 and cast to  int</text><path d="M109.5,480.1836 L109.5,571.9414 L370.5,571.9414 L370.5,490.1836 L360.5,480.1836 L109.5,480.1836 " fill="#FEFFDD" style="stroke:#181818;stroke-width:0.5;"/><path d="M360.5,480.1836 L360.5,490.1836 L370.5,490.1836 L360.5,480.1836 " fill="#FEFFDD" style="stroke:#181818;stroke-width:0.5;"/><text fill="#000000" font-family="sans-serif" font-size="13" lengthAdjust="spacing" textLength="223" x="115.5" y="498.6787">Hint: this is what we call a 'code smell'</text><text fill="#000000" font-family="sans-serif" font-size="13" lengthAdjust="spacing" textLength="232" x="115.5" y="515.0303">where you feel like you are copy/pasting</text><text fill="#000000" font-family="sans-serif" font-size="13" lengthAdjust="spacing" textLength="222" x="115.5" y="531.3818">some code with minor tweaks. We will</text><text fill="#000000" font-family="sans-serif" font-size="13" lengthAdjust="spacing" textLength="240" x="115.5" y="547.7334">discuss Methods/Functions soon that will</text><text fill="#000000" font-family="sans-serif" font-size="13" lengthAdjust="spacing" textLength="178" x="115.5" y="564.085">help ease and/or organize this.</text><rect fill="#E0FFFF" height="65.2813" rx="12.5" ry="12.5" style="stroke:#181818;stroke-width:0.5;" width="286" x="380.5" y="443.2813"/><text fill="#000000" font-family="sans-serif" font-size="12" lengthAdjust="spacing" textLength="173" x="390.5" y="465.7383">display a message asking user</text><text fill="#000000" font-family="sans-serif" font-size="12" lengthAdjust="spacing" textLength="266" x="390.5" y="480.832">to 'Please enter a rent for month two:' and assign</text><text fill="#000000" font-family="sans-serif" font-size="12" lengthAdjust="spacing" textLength="180" x="390.5" y="495.9258">the input to a month_two variable</text><rect fill="#FFB6C1" height="65.2813" rx="12.5" ry="12.5" style="stroke:#181818;stroke-width:0.5;" width="281" x="383" y="543.5625"/><text fill="#000000" font-family="sans-serif" font-size="12" lengthAdjust="spacing" textLength="183" x="393" y="566.0195">if you didn't do this in the previous</text><text fill="#000000" font-family="sans-serif" font-size="12" lengthAdjust="spacing" textLength="261" x="393" y="581.1133">line of code, cast month_two to an 'int' and store</text><text fill="#000000" font-family="sans-serif" font-size="12" lengthAdjust="spacing" textLength="189" x="393" y="596.207">it as a variable like 'month_two_int'</text><rect fill="none" height="200.1719" style="stroke:#000000;stroke-width:1.5;" width="315" x="366" y="630.8438"/><path d="M538,630.8438 L538,641.4531 L528,651.4531 L366,651.4531 " fill="none" style="stroke:#000000;stroke-width:1.5;"/><text fill="#000000" font-family="sans-serif" font-size="14" lengthAdjust="spacing" textLength="162" x="369" y="646.377">Get Rent3 and cast to  int</text><rect fill="#E0FFFF" height="65.2813" rx="12.5" ry="12.5" style="stroke:#181818;stroke-width:0.5;" width="295" x="376" y="668.4531"/><text fill="#000000" font-family="sans-serif" font-size="12" lengthAdjust="spacing" textLength="173" x="386" y="690.9102">display a message asking user</text><text fill="#000000" font-family="sans-serif" font-size="12" lengthAdjust="spacing" textLength="275" x="386" y="706.0039">to 'Please enter a rent for month three:' and assign</text><text fill="#000000" font-family="sans-serif" font-size="12" lengthAdjust="spacing" textLength="189" x="386" y="721.0977">the input to a month_three variable</text><rect fill="#FFB6C1" height="65.2813" rx="12.5" ry="12.5" style="stroke:#181818;stroke-width:0.5;" width="290" x="378.5" y="753.7344"/><text fill="#000000" font-family="sans-serif" font-size="12" lengthAdjust="spacing" textLength="183" x="388.5" y="776.1914">if you didn't do this in the previous</text><text fill="#000000" font-family="sans-serif" font-size="12" lengthAdjust="spacing" textLength="270" x="388.5" y="791.2852">line of code, cast month_three to an 'int' and store</text><text fill="#000000" font-family="sans-serif" font-size="12" lengthAdjust="spacing" textLength="198" x="388.5" y="806.3789">it as a variable like 'month_three_int'</text><rect fill="none" height="200.1719" style="stroke:#000000;stroke-width:1.5;" width="308" x="369.5" y="841.0156"/><path d="M541.5,841.0156 L541.5,851.625 L531.5,861.625 L369.5,861.625 " fill="none" style="stroke:#000000;stroke-width:1.5;"/><text fill="#000000" font-family="sans-serif" font-size="14" lengthAdjust="spacing" textLength="162" x="372.5" y="856.5488">Get Rent4 and cast to  int</text><rect fill="#E0FFFF" height="65.2813" rx="12.5" ry="12.5" style="stroke:#181818;stroke-width:0.5;" width="288" x="379.5" y="878.625"/><text fill="#000000" font-family="sans-serif" font-size="12" lengthAdjust="spacing" textLength="173" x="389.5" y="901.082">display a message asking user</text><text fill="#000000" font-family="sans-serif" font-size="12" lengthAdjust="spacing" textLength="268" x="389.5" y="916.1758">to 'Please enter a rent for month four:' and assign</text><text fill="#000000" font-family="sans-serif" font-size="12" lengthAdjust="spacing" textLength="182" x="389.5" y="931.2695">the input to a month_four variable</text><rect fill="#FFB6C1" height="65.2813" rx="12.5" ry="12.5" style="stroke:#181818;stroke-width:0.5;" width="283" x="382" y="963.9063"/><text fill="#000000" font-family="sans-serif" font-size="12" lengthAdjust="spacing" textLength="183" x="392" y="986.3633">if you didn't do this in the previous</text><text fill="#000000" font-family="sans-serif" font-size="12" lengthAdjust="spacing" textLength="263" x="392" y="1001.457">line of code, cast month_four to an 'int' and store</text><text fill="#000000" font-family="sans-serif" font-size="12" lengthAdjust="spacing" textLength="191" x="392" y="1016.5508">it as a variable like 'month_four_int'</text><rect fill="none" height="252.2031" style="stroke:#000000;stroke-width:1.5;" width="658.5" x="11" y="1063.1875"/><path d="M74,1063.1875 L74,1073.7969 L64,1083.7969 L11,1083.7969 " fill="none" style="stroke:#000000;stroke-width:1.5;"/><text fill="#000000" font-family="sans-serif" font-size="14" lengthAdjust="spacing" textLength="53" x="14" y="1078.7207">Do Math</text><rect fill="none" height="99.7969" style="stroke:#000000;stroke-width:1.5;" width="625" x="21" y="1093.7969"/><path d="M83,1093.7969 L83,1104.4063 L73,1114.4063 L21,1114.4063 " fill="none" style="stroke:#000000;stroke-width:1.5;"/><text fill="#000000" font-family="sans-serif" font-size="14" lengthAdjust="spacing" textLength="52" x="24" y="1109.3301">Get Max</text><path d="M31,1135.1484 L31,1177.8516 A0,0 0 0 0 31,1177.8516 L391,1177.8516 A0,0 0 0 0 391,1177.8516 L391,1160.5 L411,1156.5 L391,1152.5 L391,1145.1484 L381,1135.1484 L31,1135.1484 A0,0 0 0 0 31,1135.1484 " fill="#FEFFDD" style="stroke:#181818;stroke-width:0.5;"/><path d="M381,1135.1484 L381,1145.1484 L391,1145.1484 L381,1135.1484 " fill="#FEFFDD" style="stroke:#181818;stroke-width:0.5;"/><text fill="#000000" font-family="sans-serif" font-size="13" lengthAdjust="spacing" textLength="339" x="37" y="1153.6436">Hint: You can google for 'Python Max() Function' for details</text><text fill="#000000" font-family="sans-serif" font-size="13" lengthAdjust="spacing" textLength="104" x="37" y="1169.9951">on how this works</text><rect fill="#008000" height="50.1875" rx="12.5" ry="12.5" style="stroke:#181818;stroke-width:0.5;" width="225" x="411" y="1131.4063"/><text fill="#000000" font-family="sans-serif" font-size="12" lengthAdjust="spacing" textLength="204" x="421" y="1153.8633">use max() function to get the max rent</text><text fill="#000000" font-family="sans-serif" font-size="12" lengthAdjust="spacing" textLength="205" x="421" y="1168.957">and store as a variable like 'max_rent'</text><rect fill="none" height="99.7969" style="stroke:#000000;stroke-width:1.5;" width="272" x="387.5" y="1203.5938"/><path d="M446.5,1203.5938 L446.5,1214.2031 L436.5,1224.2031 L387.5,1224.2031 " fill="none" style="stroke:#000000;stroke-width:1.5;"/><text fill="#000000" font-family="sans-serif" font-size="14" lengthAdjust="spacing" textLength="49" x="390.5" y="1219.127">Inflation</text><rect fill="#87CEEB" height="50.1875" rx="12.5" ry="12.5" style="stroke:#181818;stroke-width:0.5;" width="252" x="397.5" y="1241.2031"/><text fill="#000000" font-family="sans-serif" font-size="12" lengthAdjust="spacing" textLength="190" x="407.5" y="1263.6602">use max_rent and add 3% to it and</text><text fill="#000000" font-family="sans-serif" font-size="12" lengthAdjust="spacing" textLength="232" x="407.5" y="1278.7539">store as a variable like 'max_with_inflation'</text><rect fill="none" height="99.7969" style="stroke:#000000;stroke-width:1.5;" width="313" x="367" y="1325.3906"/><path d="M499,1325.3906 L499,1336 L489,1346 L367,1346 " fill="none" style="stroke:#000000;stroke-width:1.5;"/><text fill="#000000" font-family="sans-serif" font-size="14" lengthAdjust="spacing" textLength="122" x="370" y="1340.9238">Print/Format output</text><rect fill="#FFA500" height="50.1875" rx="12.5" ry="12.5" style="stroke:#181818;stroke-width:0.5;" width="293" x="377" y="1363"/><text fill="#000000" font-family="sans-serif" font-size="12" lengthAdjust="spacing" textLength="177" x="387" y="1385.457">print "{first_name}, your max rent</text><text fill="#000000" font-family="sans-serif" font-size="12" lengthAdjust="spacing" textLength="273" x="387" y="1400.5508">with inflation for next year is ${max_with_inflation}"</text><ellipse cx="523.5" cy="1455.1875" fill="none" rx="10" ry="10" style="stroke:#222222;stroke-width:1.5;"/><line style="stroke:#222222;stroke-width:2.5;" x1="517.3128" x2="529.6872" y1="1449.0003" y2="1461.3747"/><line style="stroke:#222222;stroke-width:2.5;" x1="529.6872" x2="517.3128" y1="1449.0003" y2="1461.3747"/><line style="stroke:#181818;stroke-width:1.0;" x1="523.5" x2="523.5" y1="30" y2="77.6094"/><polygon fill="#181818" points="519.5,67.6094,523.5,77.6094,527.5,67.6094,523.5,71.6094" style="stroke:#181818;stroke-width:1.0;"/><line style="stroke:#181818;stroke-width:1.0;" x1="523.5" x2="523.5" y1="298.3906" y2="318.3906"/><polygon fill="#181818" points="519.5,308.3906,523.5,318.3906,527.5,308.3906,523.5,312.3906" style="stroke:#181818;stroke-width:1.0;"/><line style="stroke:#181818;stroke-width:1.0;" x1="523.5" x2="523.5" y1="508.5625" y2="543.5625"/><polygon fill="#181818" points="519.5,533.5625,523.5,543.5625,527.5,533.5625,523.5,537.5625" style="stroke:#181818;stroke-width:1.0;"/><line style="stroke:#181818;stroke-width:1.0;" x1="523.5" x2="523.5" y1="383.6719" y2="443.2813"/><polygon fill="#181818" points="519.5,433.2813,523.5,443.2813,527.5,433.2813,523.5,437.2813" style="stroke:#181818;stroke-width:1.0;"/><line style="stroke:#181818;stroke-width:1.0;" x1="523.5" x2="523.5" y1="733.7344" y2="753.7344"/><polygon fill="#181818" points="519.5,743.7344,523.5,753.7344,527.5,743.7344,523.5,747.7344" style="stroke:#181818;stroke-width:1.0;"/><line style="stroke:#181818;stroke-width:1.0;" x1="523.5" x2="523.5" y1="608.8438" y2="668.4531"/><polygon fill="#181818" points="519.5,658.4531,523.5,668.4531,527.5,658.4531,523.5,662.4531" style="stroke:#181818;stroke-width:1.0;"/><line style="stroke:#181818;stroke-width:1.0;" x1="523.5" x2="523.5" y1="943.9063" y2="963.9063"/><polygon fill="#181818" points="519.5,953.9063,523.5,963.9063,527.5,953.9063,523.5,957.9063" style="stroke:#181818;stroke-width:1.0;"/><line style="stroke:#181818;stroke-width:1.0;" x1="523.5" x2="523.5" y1="819.0156" y2="878.625"/><polygon fill="#181818" points="519.5,868.625,523.5,878.625,527.5,868.625,523.5,872.625" style="stroke:#181818;stroke-width:1.0;"/><line style="stroke:#181818;stroke-width:1.0;" x1="523.5" x2="523.5" y1="142.8906" y2="233.1094"/><polygon fill="#181818" points="519.5,223.1094,523.5,233.1094,527.5,223.1094,523.5,227.1094" style="stroke:#181818;stroke-width:1.0;"/><line style="stroke:#181818;stroke-width:1.0;" x1="523.5" x2="523.5" y1="1181.5938" y2="1241.2031"/><polygon fill="#181818" points="519.5,1231.2031,523.5,1241.2031,527.5,1231.2031,523.5,1235.2031" style="stroke:#181818;stroke-width:1.0;"/><line style="stroke:#181818;stroke-width:1.0;" x1="523.5" x2="523.5" y1="1029.1875" y2="1131.4063"/><polygon fill="#181818" points="519.5,1121.4063,523.5,1131.4063,527.5,1121.4063,523.5,1125.4063" style="stroke:#181818;stroke-width:1.0;"/><line style="stroke:#181818;stroke-width:1.0;" x1="523.5" x2="523.5" y1="1291.3906" y2="1363"/><polygon fill="#181818" points="519.5,1353,523.5,1363,527.5,1353,523.5,1357" style="stroke:#181818;stroke-width:1.0;"/><line style="stroke:#181818;stroke-width:1.0;" x1="523.5" x2="523.5" y1="1413.1875" y2="1445.1875"/><polygon fill="#181818" points="519.5,1435.1875,523.5,1445.1875,527.5,1435.1875,523.5,1439.1875" style="stroke:#181818;stroke-width:1.0;"/><!--MD5=[f02285391a58be98ab1b279c4ebf8369]
@startuml
start
partition "Get Name"{
#lightblue:display a message asking user
to 'Please enter a first name:' and assign
the input to a 'first_name' variable;
note left
    Note that all input gotten from the
    **input()** method is of type 'str' initally.
end note
}
partition #lightgray "Get Rent"{
partition "Get Rent1 and cast to  int"{
#lightcyan:display a message asking user
to 'Please enter rent for month one:' and assign
the input to a month_one variable;
#lightpink:if you didn't do this in the previous
line of code, cast month_one to an 'int' and store
it as a variable like 'month_one_int';
note left
    Hint: last weeks homework we cast a
    variable to an integer; refer to that
    code if you are stuck
end note
}
partition "Get Rent2 and cast to  int"{
note
    Hint: this is what we call a 'code smell'
    where you feel like you are copy/pasting
    some code with minor tweaks. We will
    discuss Methods/Functions soon that will
    help ease and/or organize this.
end note
#lightcyan:display a message asking user
to 'Please enter a rent for month two:' and assign
the input to a month_two variable;
#lightpink:if you didn't do this in the previous
line of code, cast month_two to an 'int' and store
it as a variable like 'month_two_int';
}
partition "Get Rent3 and cast to  int"{
#lightcyan:display a message asking user
to 'Please enter a rent for month three:' and assign
the input to a month_three variable;
#lightpink:if you didn't do this in the previous
line of code, cast month_three to an 'int' and store
it as a variable like 'month_three_int';
}
partition "Get Rent4 and cast to  int"{
#lightcyan:display a message asking user
to 'Please enter a rent for month four:' and assign
the input to a month_four variable;
#lightpink:if you didn't do this in the previous
line of code, cast month_four to an 'int' and store
it as a variable like 'month_four_int';
}
}
partition "Do Math"{
    partition "Get Max"{
        #green:use max() function to get the max rent
        and store as a variable like 'max_rent';
    }
    note left
        Hint: You can google for 'Python Max() Function' for details
        on how this works
    end note
    partition "Inflation"{
        #skyblue:use max_rent and add 3% to it and
        store as a variable like 'max_with_inflation';
    }
}
partition "Print/Format output"{
    #orange:print "{first_name}, your max rent
    with inflation for next year is ${max_with_inflation}";
}
end
@enduml

PlantUML version 1.2022.7(Mon Aug 22 12:01:30 CDT 2022)
(GPL source distribution)
Java Runtime: OpenJDK Runtime Environment
JVM: OpenJDK 64-Bit Server VM
Default Encoding: Cp1252
Language: en
Country: US
--></g></svg>